<?xml version="1.0" standalone="no"?>
<!DOCTYPE svg PUBLIC "-//W3C//DTD SVG 20010904//EN"
 "http://www.w3.org/TR/2001/REC-SVG-20010904/DTD/svg10.dtd">
<svg version="1.0" xmlns="http://www.w3.org/2000/svg"
 width="4242.000000pt" height="1269.000000pt" viewBox="0 0 4242.000000 1269.000000"
 preserveAspectRatio="xMidYMid meet">

<g transform="translate(0.000000,1269.000000) scale(0.100000,-0.100000)"
fill="#000000" stroke="none">
<path d="M5875 10845 c-875 -90 -1716 -455 -2390 -1037 -156 -135 -411 -400
-539 -558 -481 -599 -790 -1321 -885 -2071 -109 -850 21 -1670 384 -2424 598
-1243 1774 -2138 3115 -2369 364 -63 214 -60 2723 -63 l2288 -4 -4 2283 c-3
2447 -2 2369 -53 2686 -197 1230 -936 2320 -2014 2970 -511 308 -1031 490
-1640 573 -205 28 -770 36 -985 14z m825 -1720 c440 -66 840 -249 1175 -537
527 -454 820 -982 917 -1653 10 -70 13 -398 13 -1505 l0 -1415 -690 0 -690 0
-3 123 c-1 68 -6 122 -10 120 -251 -125 -466 -196 -707 -233 -150 -24 -575
-16 -775 14 -303 46 -569 132 -830 267 -318 165 -692 519 -935 884 -86 130
-206 366 -259 513 -69 186 -114 396 -137 632 -16 163 -6 502 20 670 80 532
313 987 705 1381 444 447 951 689 1571 753 130 14 509 5 635 -14z"/>
<path d="M6075 7729 c-174 -26 -381 -113 -526 -223 -221 -167 -368 -392 -436
-665 -24 -93 -27 -127 -27 -271 0 -146 3 -177 26 -270 109 -435 426 -753 864
-866 99 -26 125 -29 281 -29 94 0 175 3 178 7 4 4 -5 47 -21 95 -25 75 -29
104 -29 193 0 185 58 323 190 456 65 65 98 90 167 123 189 91 382 94 565 7
l72 -34 17 71 c25 110 30 314 10 436 -64 379 -307 705 -647 866 -211 99 -457
137 -684 104z"/>
<path d="M30628 9206 l-648 -191 0 -312 0 -313 -275 0 -275 0 0 -480 0 -480
275 0 275 0 0 -900 c0 -575 4 -936 11 -997 65 -583 453 -980 1042 -1067 85
-13 213 -16 691 -16 l586 0 0 540 0 540 -417 0 c-389 0 -420 1 -448 19 -84 51
-139 149 -155 276 -7 51 -10 353 -8 840 l3 760 513 3 512 2 0 480 0 480 -515
0 -515 0 -2 503 -3 503 -647 -190z"/>
<path d="M13776 8518 c-1044 -91 -1694 -959 -1625 -2170 45 -797 393 -1399
979 -1697 330 -167 727 -235 1093 -186 334 44 596 173 830 407 l117 118 0
-245 0 -245 655 0 655 0 0 1990 0 1990 -655 0 -655 0 0 -251 0 -251 -102 105
c-123 125 -230 205 -366 275 -271 140 -572 192 -926 160z m788 -1127 c288 -75
488 -284 573 -597 26 -93 27 -112 27 -319 0 -207 -1 -226 -27 -319 -50 -184
-149 -348 -271 -447 -72 -60 -213 -130 -311 -156 -109 -28 -372 -26 -480 5
-237 68 -405 208 -510 426 -99 206 -129 477 -80 735 72 379 327 634 690 691
94 14 298 4 389 -19z"/>
<path d="M23452 8520 c-765 -60 -1364 -446 -1660 -1070 -146 -306 -207 -597
-206 -980 0 -301 34 -516 119 -758 248 -710 828 -1141 1666 -1238 175 -20 563
-15 727 10 515 78 948 288 1267 615 l60 61 -342 342 -342 342 -46 -40 c-226
-191 -413 -287 -660 -340 -109 -23 -341 -23 -450 0 -166 36 -313 115 -430 231
-113 111 -200 259 -250 423 l-6 22 1387 0 1386 0 -5 288 c-7 388 -37 582 -134
867 -160 468 -443 802 -854 1009 -286 144 -567 209 -949 220 -91 2 -216 1
-278 -4z m338 -975 c124 -19 189 -38 281 -86 191 -99 307 -276 326 -495 l6
-74 -767 0 c-421 0 -766 3 -766 8 0 15 41 158 61 212 39 107 117 224 193 290
152 133 397 187 666 145z"/>
<path d="M28579 8510 c-206 -37 -393 -111 -562 -222 -117 -79 -293 -254 -372
-372 l-60 -88 -3 326 -2 326 -655 0 -655 0 0 -1990 0 -1990 655 0 655 0 0 924
c0 789 2 935 15 998 84 401 365 726 740 855 121 41 195 54 363 60 l162 6 0
593 0 594 -87 -1 c-49 0 -135 -9 -194 -19z"/>
<path d="M35355 8523 c-256 -33 -501 -128 -689 -266 -104 -77 -224 -199 -303
-307 -34 -47 -69 -94 -77 -105 -14 -18 -15 14 -16 308 l0 327 -655 0 -655 0 0
-1990 0 -1990 655 0 654 0 3 948 c3 943 3 947 25 1025 64 225 150 373 308 533
160 161 304 244 524 301 77 20 130 26 264 30 l167 6 0 593 0 594 -87 -1 c-49
-1 -101 -4 -118 -6z"/>
<path d="M38055 8523 c-361 -22 -667 -96 -943 -228 -608 -292 -973 -814 -1063
-1520 -15 -120 -15 -436 0 -560 95 -765 524 -1326 1219 -1595 131 -51 366
-112 527 -136 172 -27 648 -27 820 0 830 127 1419 587 1655 1294 86 256 115
477 107 791 -9 363 -71 615 -223 911 -279 542 -807 901 -1489 1010 -195 31
-431 44 -610 33z m415 -1183 c227 -56 401 -193 499 -394 131 -268 128 -685 -7
-941 -44 -83 -161 -205 -245 -254 -258 -151 -708 -161 -977 -20 -179 93 -293
236 -349 437 -56 201 -51 468 11 662 78 246 260 426 503 499 108 33 178 40
335 36 104 -2 169 -9 230 -25z"/>
<path d="M17040 8472 c0 -4 333 -898 739 -1987 l740 -1980 673 -3 674 -2 746
1987 747 1988 -652 3 c-418 1 -653 -1 -657 -8 -3 -5 -192 -624 -420 -1375
-227 -751 -417 -1362 -421 -1358 -4 5 -191 622 -417 1373 l-410 1365 -671 3
c-369 1 -671 -1 -671 -6z"/>
<path d="M13910 3045 l0 -965 115 0 115 0 0 333 c0 182 5 361 11 397 28 179
134 285 295 298 168 13 276 -73 303 -238 6 -37 11 -223 11 -427 l0 -363 110 0
110 0 0 433 c0 468 -2 493 -55 598 -87 170 -321 250 -543 184 -76 -23 -170
-90 -206 -149 l-31 -49 -3 456 -2 457 -115 0 -115 0 0 -965z"/>
<path d="M19970 3045 l0 -965 115 0 115 0 0 85 c0 47 1 85 3 85 2 0 29 -25 61
-56 159 -154 432 -186 651 -77 204 103 325 315 325 570 -1 302 -161 527 -435
609 -85 26 -260 26 -335 0 -91 -31 -167 -76 -215 -127 -25 -27 -48 -49 -50
-49 -3 0 -5 200 -5 445 l0 445 -115 0 -115 0 0 -965z m761 45 c116 -36 197
-116 242 -238 17 -45 21 -80 21 -167 0 -87 -4 -122 -21 -167 -64 -174 -207
-266 -397 -256 -198 10 -337 142 -369 349 -21 139 25 301 112 388 102 102 265
138 412 91z"/>
<path d="M26500 3045 l0 -965 115 0 115 0 0 343 c0 364 7 433 50 516 51 102
139 159 256 169 168 13 276 -73 303 -238 6 -37 11 -223 11 -427 l0 -363 110 0
110 0 0 433 c0 468 -2 493 -55 598 -87 170 -321 250 -543 184 -76 -23 -170
-90 -206 -149 l-31 -49 -3 456 -2 457 -115 0 -115 0 0 -965z"/>
<path d="M12310 3775 l0 -115 290 0 290 0 0 -790 0 -790 120 0 120 0 0 790 0
790 290 0 290 0 0 115 0 115 -700 0 -700 0 0 -115z"/>
<path d="M15772 3309 c-237 -42 -427 -221 -489 -459 -22 -85 -22 -253 1 -340
53 -208 193 -362 391 -427 70 -23 96 -26 210 -27 207 0 336 48 466 172 l71 67
-87 66 -86 65 -60 -57 c-80 -77 -150 -111 -243 -117 -127 -8 -240 29 -328 107
-56 50 -108 147 -108 203 l0 38 480 0 480 0 0 98 c0 299 -149 521 -400 596
-67 20 -226 28 -298 15z m268 -201 c61 -29 99 -61 135 -116 26 -39 55 -137 55
-184 l0 -28 -361 0 -362 0 6 49 c15 128 124 253 260 297 68 22 200 13 267 -18z"/>
<path d="M17913 3310 c-70 -13 -178 -54 -235 -91 -66 -42 -157 -143 -196 -216
-68 -129 -93 -339 -57 -490 48 -203 197 -363 398 -429 71 -24 99 -27 207 -28
187 0 312 41 414 136 l51 47 -79 80 -79 80 -48 -43 c-82 -74 -127 -90 -249
-91 -88 0 -113 4 -154 23 -146 67 -236 214 -236 385 1 250 140 423 349 435
122 7 205 -23 291 -105 l36 -33 87 79 86 80 -50 45 c-58 52 -147 99 -234 121
-73 20 -232 27 -302 15z"/>
<path d="M21972 3309 c-237 -42 -427 -221 -489 -459 -22 -85 -22 -253 1 -340
53 -208 193 -362 391 -427 70 -23 96 -26 210 -27 207 0 336 48 466 172 l71 67
-87 66 -86 65 -60 -57 c-80 -77 -150 -111 -243 -117 -127 -8 -240 29 -328 107
-56 50 -108 147 -108 203 l0 38 480 0 480 0 0 98 c0 298 -150 521 -400 596
-67 20 -226 28 -298 15z m225 -184 c64 -19 124 -60 162 -110 34 -45 71 -149
71 -201 l0 -34 -361 0 -362 0 6 49 c15 129 126 255 260 296 57 18 163 18 224
0z"/>
<path d="M23451 3304 c-103 -27 -208 -103 -250 -179 -16 -30 -16 -29 -19 68
l-3 97 -114 0 -115 0 0 -605 0 -605 115 0 115 0 0 328 c0 180 5 356 10 392 20
124 79 207 179 254 38 17 65 21 157 21 l111 0 7 74 c3 41 6 93 6 116 0 41 -1
43 -37 49 -57 9 -102 6 -162 -10z"/>
<path d="M30368 3310 c-246 -44 -428 -211 -488 -446 -24 -94 -27 -260 -5 -351
48 -204 196 -363 398 -429 71 -24 99 -27 207 -28 187 0 312 41 414 136 l51 47
-79 80 -79 80 -48 -43 c-82 -74 -127 -90 -249 -91 -88 0 -113 4 -154 23 -146
67 -236 214 -236 385 1 250 140 423 349 435 122 7 205 -23 291 -105 l36 -33
87 79 86 80 -50 45 c-58 52 -147 99 -234 121 -72 19 -231 27 -297 15z"/>
<path d="M31635 3313 c-98 -13 -226 -69 -310 -135 -103 -81 -191 -218 -220
-339 -19 -82 -19 -226 0 -308 34 -142 142 -295 265 -373 201 -128 434 -141
650 -35 152 74 275 222 326 392 26 86 24 267 -3 352 -99 301 -395 488 -708
446z m263 -238 c303 -136 303 -644 1 -780 -169 -75 -387 -24 -489 116 -58 80
-74 141 -74 274 0 101 3 129 22 176 46 114 125 192 237 229 88 30 218 23 303
-15z"/>
<path d="M33153 3306 c-106 -27 -209 -94 -255 -165 l-28 -45 0 97 0 97 -110 0
-110 0 0 -605 0 -605 115 0 115 0 0 343 c0 370 7 431 54 525 14 27 46 68 72
91 120 105 321 92 391 -26 48 -83 53 -126 53 -545 l0 -388 114 0 115 0 3 393
c3 377 4 394 25 446 53 129 123 181 253 189 41 2 94 -1 118 -7 57 -16 114 -69
143 -134 24 -52 24 -55 27 -469 l3 -418 115 0 114 0 0 378 c0 519 -16 613
-126 731 -175 190 -540 166 -685 -45 l-30 -44 -47 62 c-49 65 -124 119 -192
138 -60 18 -191 21 -247 6z"/>
<path d="M35361 3305 c-97 -22 -183 -67 -247 -129 -32 -31 -59 -56 -61 -56 -2
0 -3 38 -3 85 l0 85 -115 0 -115 0 0 -965 0 -965 115 0 115 0 0 445 c0 245 2
445 5 445 2 0 25 -22 50 -49 49 -52 148 -109 230 -132 72 -20 245 -17 320 5
285 85 447 326 433 645 -13 285 -173 500 -428 575 -79 24 -221 29 -299 11z
m221 -216 c117 -38 196 -116 241 -237 17 -45 21 -80 21 -167 0 -124 -17 -188
-74 -270 -127 -185 -437 -208 -600 -45 -188 188 -142 576 82 691 105 54 222
64 330 28z"/>
<path d="M36750 3309 c-125 -22 -240 -73 -346 -153 -9 -7 5 -29 53 -83 l65
-73 62 44 c85 61 155 87 252 93 102 7 173 -12 232 -63 56 -47 83 -104 90 -181
l5 -63 -119 0 c-324 -1 -511 -54 -628 -180 -70 -76 -90 -138 -84 -258 5 -103
29 -161 92 -223 82 -83 228 -128 375 -115 142 13 239 60 324 157 l45 51 7 -91
7 -91 97 0 96 0 -3 332 c-4 610 -3 594 -36 665 -49 107 -146 183 -281 220 -65
18 -235 25 -305 12z m410 -712 c0 -236 -145 -377 -375 -365 -136 7 -214 60
-230 159 -22 131 87 228 290 258 33 5 117 9 188 10 l127 1 0 -63z"/>
<path d="M38214 3305 c-107 -23 -208 -89 -252 -163 l-27 -47 -3 98 -3 97 -114
0 -115 0 0 -605 0 -605 115 0 115 0 0 343 c0 364 7 433 50 516 51 102 139 159
256 169 168 13 276 -73 303 -238 6 -37 11 -223 11 -427 l0 -363 110 0 110 0 0
433 c0 468 -2 493 -55 598 -81 160 -289 240 -501 194z"/>
<path d="M18563 3258 c8 -18 121 -293 251 -610 l238 -577 -51 -131 c-62 -160
-95 -211 -157 -240 -39 -19 -56 -22 -117 -17 -40 4 -84 9 -98 12 -25 7 -25 6
-37 -83 -7 -49 -12 -94 -12 -100 0 -20 84 -36 195 -36 219 0 305 70 410 330
79 198 567 1448 572 1467 5 15 -5 17 -115 17 l-120 0 -16 -42 c-9 -24 -85
-233 -169 -466 -85 -233 -157 -424 -161 -425 -4 -1 -88 207 -185 463 l-177
465 -132 3 -133 3 14 -33z"/>
<path d="M24420 3288 c0 -2 89 -273 198 -603 l198 -600 124 0 123 0 139 435
c76 239 141 442 144 450 9 21 12 13 181 -467 l148 -423 115 0 116 0 192 598
c106 328 192 601 192 605 0 4 -53 6 -117 5 l-118 -3 -56 -195 c-31 -107 -89
-309 -129 -448 -40 -139 -77 -249 -81 -245 -4 4 -74 206 -156 448 l-149 440
-120 3 -120 3 -144 -451 c-79 -247 -146 -450 -149 -450 -3 0 -67 203 -141 450
l-135 450 -127 0 c-71 0 -128 -1 -128 -2z"/>
<path d="M27793 3258 c8 -18 121 -293 251 -610 l238 -577 -51 -131 c-62 -160
-95 -211 -157 -240 -39 -19 -56 -22 -117 -17 -40 4 -84 9 -98 12 -25 7 -25 6
-37 -83 -7 -49 -12 -94 -12 -100 0 -20 84 -36 195 -36 219 0 305 70 410 330
79 198 567 1448 572 1467 5 15 -5 17 -115 17 l-120 0 -16 -42 c-9 -24 -85
-232 -169 -464 -83 -232 -156 -423 -160 -425 -5 -2 -89 205 -186 461 l-177
465 -132 3 -133 3 14 -33z"/>
<path d="M38993 3258 c8 -18 121 -293 251 -610 l238 -577 -51 -131 c-62 -160
-95 -211 -157 -240 -39 -19 -56 -22 -117 -17 -40 4 -84 9 -98 12 -25 7 -25 6
-37 -83 -7 -49 -12 -94 -12 -100 0 -20 84 -36 195 -36 219 0 305 70 410 330
79 198 567 1448 572 1467 5 15 -5 17 -115 17 l-120 0 -16 -42 c-9 -24 -85
-232 -169 -464 -83 -232 -156 -423 -160 -425 -5 -2 -89 205 -186 461 l-177
465 -132 3 -133 3 14 -33z"/>
<path d="M23670 2695 l0 -105 315 0 315 0 0 105 0 105 -315 0 -315 0 0 -105z"/>
</g>
</svg>
